# xmcd
#
# Track frame offsets:
#	150
#	15820
#	31027
#	50905
#	71762
#	95845
#	111220
#	122902
#	142715
#	160920
#	174145
#
# Disc length: 2546 seconds
#
# Revision: 1
# Processed by: cddbd v1.5.1PL0 Copyright (c) Steve Scherf et al.
# Submitted via: audiograbber 1.81.02
#
DISCID=8809f00b
DTITLE=Gareth Robinson - Be Glorified (www.gerth.de)
DYEAR=2005
DGENRE=Chorus
TTITLE0=We Come To Be With You Today
TTITLE1=O God The God Of Blessing
TTITLE2=Jesus You Humbled Yourself
TTITLE3=Hear Your Prayers
TTITLE4=We Adore You
TTITLE5=I Love You Lord
TTITLE6=Pearl
TTITLE7=Jesus Saviour
TTITLE8=Hear My Mouth Speak
TTITLE9=When All Around Is I Feel Despair
TTITLE10=You Have Promised
EXTD=
EXTT0=
EXTT1=
EXTT2=
EXTT3=
EXTT4=
EXTT5=
EXTT6=
EXTT7=
EXTT8=
EXTT9=
EXTT10=
PLAYORDER=
